<svg width="528" height="208" viewBox="0 0 528 208" fill="none" xmlns="http://www.w3.org/2000/svg">
<rect width="528" height="208" fill="#50C878"/>
<rect x="14" y="14" width="500" height="180" fill="#0F0F0F"/>
<path d="M235.3 87.1H237.25C238.45 87.1 239.05 87.75 239.05 89.05C239.05 90.35 238.45 91 237.25 91H229.225C228.675 91 228.225 90.825 227.875 90.475C227.575 90.075 227.425 89.6 227.425 89.05C227.425 87.75 228.025 87.1 229.225 87.1H231.025V47.425L215.2 58.9C214.7 59.3 214.2 59.5 213.7 59.5C213.2 59.5 212.65 59.325 212.05 58.975L196.9 49.675V87.1H198.625C199.825 87.1 200.425 87.75 200.425 89.05C200.425 90.35 199.825 91 198.625 91H191.05C189.85 91 189.25 90.35 189.25 89.05C189.25 87.75 189.85 87.1 191.05 87.1H192.925V47.125H190.675C189.475 47.125 188.875 46.475 188.875 45.175C188.875 44.575 189.025 44.1 189.325 43.75C189.675 43.35 190.125 43.15 190.675 43.15H193C193.9 43.15 194.825 43.425 195.775 43.975L214.15 55.225L229.525 43.975C230.325 43.425 231 43.15 231.55 43.15H237.175C238.425 43.15 239.05 43.825 239.05 45.175C239.05 46.475 238.425 47.125 237.175 47.125H235.3V87.1ZM264.231 87.025H266.031C267.231 87.025 267.831 87.7 267.831 89.05C267.831 90.35 267.231 91 266.031 91H258.081C256.881 91 256.281 90.35 256.281 89.05C256.281 87.7 256.881 87.025 258.081 87.025H259.881V73.6L245.556 47.125H243.231C242.181 47.125 241.656 46.45 241.656 45.1C241.656 44.6 241.806 44.15 242.106 43.75C242.406 43.35 242.781 43.15 243.231 43.15H252.531C252.981 43.15 253.356 43.35 253.656 43.75C253.956 44.15 254.106 44.6 254.106 45.1C254.106 46.45 253.581 47.125 252.531 47.125H250.431L262.356 69.25L274.056 47.125H272.256C271.106 47.125 270.531 46.45 270.531 45.1C270.531 44.6 270.681 44.15 270.981 43.75C271.281 43.35 271.706 43.15 272.256 43.15H280.206C280.706 43.15 281.106 43.35 281.406 43.75C281.756 44.15 281.931 44.625 281.931 45.175C281.931 45.725 281.756 46.2 281.406 46.6C281.106 46.95 280.706 47.125 280.206 47.125H278.256L264.231 73.525V87.025ZM349.704 87.1H351.654C352.854 87.1 353.454 87.75 353.454 89.05C353.454 90.35 352.854 91 351.654 91H343.629C343.079 91 342.629 90.825 342.279 90.475C341.979 90.075 341.829 89.6 341.829 89.05C341.829 87.75 342.429 87.1 343.629 87.1H345.429V47.425L329.604 58.9C329.104 59.3 328.604 59.5 328.104 59.5C327.604 59.5 327.054 59.325 326.454 58.975L311.304 49.675V87.1H313.029C314.229 87.1 314.829 87.75 314.829 89.05C314.829 90.35 314.229 91 313.029 91H305.454C304.254 91 303.654 90.35 303.654 89.05C303.654 87.75 304.254 87.1 305.454 87.1H307.329V47.125H305.079C303.879 47.125 303.279 46.475 303.279 45.175C303.279 44.575 303.429 44.1 303.729 43.75C304.079 43.35 304.529 43.15 305.079 43.15H307.404C308.304 43.15 309.229 43.425 310.179 43.975L328.554 55.225L343.929 43.975C344.729 43.425 345.404 43.15 345.954 43.15H351.579C352.829 43.15 353.454 43.825 353.454 45.175C353.454 46.475 352.829 47.125 351.579 47.125H349.704V87.1ZM395.436 67.075C395.436 74.775 393.561 80.825 389.811 85.225C386.061 89.575 381.411 91.75 375.861 91.75C370.361 91.75 365.736 89.525 361.986 85.075C358.286 80.625 356.436 74.55 356.436 66.85C356.436 59.15 358.311 53.15 362.061 48.85C365.811 44.55 370.436 42.4 375.936 42.4C381.486 42.4 386.111 44.575 389.811 48.925C393.561 53.275 395.436 59.325 395.436 67.075ZM389.286 57.4C388.186 54.2 386.461 51.5 384.111 49.3C381.761 47.1 379.011 46 375.861 46C372.761 46 370.036 47.025 367.686 49.075C365.336 51.125 363.586 53.7 362.436 56.8C361.336 59.85 360.786 63.1 360.786 66.55C360.786 71.85 362.186 76.775 364.986 81.325C367.786 85.875 371.461 88.15 376.011 88.15C380.561 88.15 384.186 86.025 386.886 81.775C389.636 77.525 391.011 72.7 391.011 67.3C391.011 63.85 390.436 60.55 389.286 57.4ZM394.114 43.15H402.289C402.789 43.15 403.214 43.35 403.564 43.75C403.914 44.15 404.089 44.65 404.089 45.25C404.089 45.8 403.914 46.25 403.564 46.6C403.214 46.95 402.789 47.125 402.289 47.125H400.564L414.139 85.975L425.539 53.2C426.339 50.8 426.739 49.425 426.739 49.075C426.739 47.825 426.364 47.1 425.614 46.9C424.714 47.95 423.639 48.475 422.389 48.475C421.189 48.475 420.264 48.2 419.614 47.65C418.964 47.05 418.639 46.425 418.639 45.775C418.639 43.125 420.339 41.8 423.739 41.8C425.539 41.8 427.089 42.475 428.389 43.825C429.689 45.125 430.339 46.575 430.339 48.175C430.339 49.725 429.864 51.75 428.914 54.25L416.164 90.1C415.714 91.3 414.889 91.9 413.689 91.9C412.489 91.9 411.689 91.325 411.289 90.175L396.139 47.125H394.114C393.614 47.125 393.189 46.95 392.839 46.6C392.539 46.25 392.389 45.8 392.389 45.25C392.389 44.65 392.539 44.15 392.839 43.75C393.189 43.35 393.614 43.15 394.114 43.15ZM436.966 87.1V47.125H434.791C433.591 47.125 432.991 46.475 432.991 45.175C432.991 43.825 433.591 43.15 434.791 43.15H443.416C444.666 43.15 445.291 43.825 445.291 45.175C445.291 46.475 444.666 47.125 443.416 47.125H441.241V87.1H443.416C444.616 87.1 445.216 87.75 445.216 89.05C445.216 90.35 444.616 91 443.416 91H434.791C433.591 91 432.991 90.35 432.991 89.05C432.991 87.75 433.591 87.1 434.791 87.1H436.966ZM456.906 87.1H473.556L481.281 79.6C481.631 79.25 482.006 79.075 482.406 79.075C483.456 79.075 483.981 79.525 483.981 80.425C483.981 80.725 483.831 81.125 483.531 81.625L478.131 90.025C477.731 90.675 477.056 91 476.106 91H450.831C449.631 91 449.031 90.35 449.031 89.05C449.031 87.75 449.631 87.1 450.831 87.1H452.631V47.125H450.831C449.631 47.125 449.031 46.475 449.031 45.175C449.031 43.825 449.631 43.15 450.831 43.15H468.606C469.556 43.15 470.281 43.4 470.781 43.9L475.506 49.375C475.856 49.775 476.031 50.175 476.031 50.575C476.031 50.975 475.881 51.325 475.581 51.625C475.331 51.875 474.956 52 474.456 52C473.956 52 473.506 51.8 473.106 51.4L467.781 46.75H456.906V55.225H464.781C464.481 54.775 464.331 54.3 464.331 53.8C464.331 53.3 464.506 52.875 464.856 52.525C465.256 52.125 465.781 51.925 466.431 51.925C467.081 51.925 467.581 52.2 467.931 52.75L471.156 58.075C471.356 58.425 471.456 58.8 471.456 59.2C471.456 59.6 471.306 59.975 471.006 60.325C470.756 60.625 470.356 60.775 469.806 60.775C469.306 60.775 468.856 60.5 468.456 59.95L467.481 58.825H456.906V87.1Z" fill="#FFF9BD"/>
<path d="M204.75 121.5V160.725C204.75 161.325 205.975 161.625 208.425 161.625C210.925 161.625 213.5 161.25 216.15 160.5C218.85 159.7 221.325 158.55 223.575 157.05C225.875 155.5 227.7 153.4 229.05 150.75C230.4 148.05 231.075 144.7 231.075 140.7C231.075 136.7 229.95 133.075 227.7 129.825C223.45 123.675 216.9 120.6 208.05 120.6C205.85 120.6 204.75 120.9 204.75 121.5ZM200.475 121.125H198.75C197.5 121.125 196.875 120.475 196.875 119.175C196.875 117.825 197.475 117.15 198.675 117.15H207.6C215.65 117.2 222.25 119.35 227.4 123.6C232.6 127.8 235.2 133.725 235.2 141.375C235.2 149.025 232.625 154.875 227.475 158.925C222.375 162.975 215.625 165 207.225 165H198.675C197.475 165 196.875 164.35 196.875 163.05C196.875 161.75 197.475 161.1 198.675 161.1H200.475V121.125ZM269.453 161.1C270.603 161.1 271.178 161.75 271.178 163.05C271.178 164.35 270.603 165 269.453 165H261.203C260.003 165 259.403 164.35 259.403 163.05C259.403 161.75 260.003 161.1 261.203 161.1H262.928L260.753 154.275H240.728L238.628 161.1H240.428C241.628 161.1 242.228 161.75 242.228 163.05C242.228 164.35 241.628 165 240.428 165H232.853C231.653 165 231.053 164.35 231.053 163.05C231.053 161.75 231.653 161.1 232.853 161.1H234.728L247.178 121.125H244.178C243.028 121.125 242.453 120.475 242.453 119.175C242.453 117.825 243.028 117.15 244.178 117.15H251.903C253.003 117.15 253.678 117.5 253.928 118.2L267.578 161.1H269.453ZM241.703 150.675H259.853L250.703 121.425L241.703 150.675ZM270.325 113.925C270.925 113.925 271.425 114.125 271.825 114.525C272.225 114.875 272.425 115.25 272.425 115.65C272.425 116.05 272.25 116.55 271.9 117.15H295.975L296.2 116.475C296.65 115.075 297.4 114.375 298.45 114.375C299 114.375 299.475 114.575 299.875 114.975C300.325 115.325 300.55 115.75 300.55 116.25C300.55 116.75 300.425 117.25 300.175 117.75L297.4 122.925C296.95 123.775 296.475 124.2 295.975 124.2C294.925 124.2 294.4 123.725 294.4 122.775C294.4 122.475 294.45 122.225 294.55 122.025L294.925 120.75H284.725V161.1H286.675C287.875 161.1 288.475 161.75 288.475 163.05C288.475 164.35 287.875 165 286.675 165H278.575C277.375 165 276.775 164.35 276.775 163.05C276.775 161.75 277.375 161.1 278.575 161.1H280.45V120.75H270.325L269.125 122.7C268.725 123.3 268.275 123.6 267.775 123.6C267.275 123.6 266.875 123.475 266.575 123.225C266.325 122.925 266.2 122.6 266.2 122.25C266.2 121.85 266.275 121.475 266.425 121.125L268.225 115.8C268.625 114.55 269.325 113.925 270.325 113.925ZM332.954 161.1C334.104 161.1 334.679 161.75 334.679 163.05C334.679 164.35 334.104 165 332.954 165H324.704C323.504 165 322.904 164.35 322.904 163.05C322.904 161.75 323.504 161.1 324.704 161.1H326.429L324.254 154.275H304.229L302.129 161.1H303.929C305.129 161.1 305.729 161.75 305.729 163.05C305.729 164.35 305.129 165 303.929 165H296.354C295.154 165 294.554 164.35 294.554 163.05C294.554 161.75 295.154 161.1 296.354 161.1H298.229L310.679 121.125H307.679C306.529 121.125 305.954 120.475 305.954 119.175C305.954 117.825 306.529 117.15 307.679 117.15H315.404C316.504 117.15 317.179 117.5 317.429 118.2L331.079 161.1H332.954ZM305.204 150.675H323.354L314.204 121.425L305.204 150.675ZM340.88 121.125H339.08C337.88 121.125 337.28 120.475 337.28 119.175C337.28 117.825 337.88 117.15 339.08 117.15H347.855C357.705 117.15 362.63 119.875 362.63 125.325C362.63 127.025 362.23 128.5 361.43 129.75C360.63 131 359.53 131.8 358.13 132.15C360.73 132.75 362.905 134.55 364.655 137.55C366.455 140.55 367.355 143.9 367.355 147.6C367.355 152.6 365.88 156.75 362.93 160.05C360.03 163.35 355.38 165 348.98 165H339.08C338.58 165 338.155 164.825 337.805 164.475C337.455 164.075 337.28 163.6 337.28 163.05C337.28 161.75 337.88 161.1 339.08 161.1H340.88V121.125ZM345.155 130.425H350.63C353.23 130.425 355.23 130.1 356.63 129.45C358.08 128.75 358.805 127.5 358.805 125.7C358.805 122.2 355.58 120.45 349.13 120.45C346.48 120.45 345.155 120.65 345.155 121.05V130.425ZM345.155 134.1V161.025C345.155 161.425 346.355 161.625 348.755 161.625C353.605 161.625 357.205 160.45 359.555 158.1C361.905 155.75 363.08 152.25 363.08 147.6C363.08 142.95 361.88 139.55 359.48 137.4C357.13 135.2 354.105 134.1 350.405 134.1H345.155ZM405.171 161.1C406.321 161.1 406.896 161.75 406.896 163.05C406.896 164.35 406.321 165 405.171 165H396.921C395.721 165 395.121 164.35 395.121 163.05C395.121 161.75 395.721 161.1 396.921 161.1H398.646L396.471 154.275H376.446L374.346 161.1H376.146C377.346 161.1 377.946 161.75 377.946 163.05C377.946 164.35 377.346 165 376.146 165H368.571C367.371 165 366.771 164.35 366.771 163.05C366.771 161.75 367.371 161.1 368.571 161.1H370.446L382.896 121.125H379.896C378.746 121.125 378.171 120.475 378.171 119.175C378.171 117.825 378.746 117.15 379.896 117.15H387.621C388.721 117.15 389.396 117.5 389.646 118.2L403.296 161.1H405.171ZM377.421 150.675H395.571L386.421 121.425L377.421 150.675ZM408.372 154.275C408.372 152.575 408.822 151.2 409.722 150.15C410.622 149.05 411.522 148.5 412.422 148.5C413.372 148.5 414.097 148.825 414.597 149.475C415.147 150.125 415.422 150.9 415.422 151.8C415.422 153.65 414.747 155.125 413.397 156.225C413.947 158.375 415.072 159.975 416.772 161.025C418.522 162.025 420.447 162.525 422.547 162.525C425.647 162.525 428.097 161.475 429.897 159.375C431.747 157.275 432.672 154.925 432.672 152.325C432.672 149.675 431.672 147.4 429.672 145.5C428.172 144.15 426.247 142.7 423.897 141.15L420.072 138.675C417.322 136.925 415.222 135.125 413.772 133.275C412.322 131.375 411.597 129.05 411.597 126.3C411.597 123.5 412.647 121.15 414.747 119.25C416.847 117.3 419.322 116.325 422.172 116.325C425.072 116.325 427.497 116.975 429.447 118.275C431.397 119.575 432.372 121.15 432.372 123C432.372 123.9 432.097 124.625 431.547 125.175C431.047 125.675 430.297 125.925 429.297 125.925C428.297 125.925 427.322 125.5 426.372 124.65C425.472 123.8 425.022 123.025 425.022 122.325C425.022 121.625 425.097 121.05 425.247 120.6C424.797 119.75 423.747 119.325 422.097 119.325C420.447 119.325 418.972 119.975 417.672 121.275C416.422 122.575 415.797 124.025 415.797 125.625C415.797 128.225 418.147 131.075 422.847 134.175L426.672 136.725C428.322 137.875 429.547 138.775 430.347 139.425C431.197 140.025 432.247 140.975 433.497 142.275C435.897 144.775 437.097 148.075 437.097 152.175C437.097 156.275 435.672 159.575 432.822 162.075C429.972 164.575 426.597 165.825 422.697 165.825C418.797 165.825 415.422 164.65 412.572 162.3C409.772 159.9 408.372 157.225 408.372 154.275ZM447.621 161.1H464.271L471.996 153.6C472.346 153.25 472.721 153.075 473.121 153.075C474.171 153.075 474.696 153.525 474.696 154.425C474.696 154.725 474.546 155.125 474.246 155.625L468.846 164.025C468.446 164.675 467.771 165 466.821 165H441.546C440.346 165 439.746 164.35 439.746 163.05C439.746 161.75 440.346 161.1 441.546 161.1H443.346V121.125H441.546C440.346 121.125 439.746 120.475 439.746 119.175C439.746 117.825 440.346 117.15 441.546 117.15H459.321C460.271 117.15 460.996 117.4 461.496 117.9L466.221 123.375C466.571 123.775 466.746 124.175 466.746 124.575C466.746 124.975 466.596 125.325 466.296 125.625C466.046 125.875 465.671 126 465.171 126C464.671 126 464.221 125.8 463.821 125.4L458.496 120.75H447.621V129.225H455.496C455.196 128.775 455.046 128.3 455.046 127.8C455.046 127.3 455.221 126.875 455.571 126.525C455.971 126.125 456.496 125.925 457.146 125.925C457.796 125.925 458.296 126.2 458.646 126.75L461.871 132.075C462.071 132.425 462.171 132.8 462.171 133.2C462.171 133.6 462.021 133.975 461.721 134.325C461.471 134.625 461.071 134.775 460.521 134.775C460.021 134.775 459.571 134.5 459.171 133.95L458.196 132.825H447.621V161.1Z" fill="#FFF9BD"/>
<rect x="56" y="31" width="85" height="146" fill="white"/>
<rect x="146.312" y="47.7176" width="11.6875" height="12.2595" fill="white"/>
<rect x="146.312" y="31" width="11.6875" height="12.2595" fill="white"/>
<rect x="146.312" y="64.4351" width="11.6875" height="12.2595" fill="white"/>
<rect x="146.312" y="81.1527" width="11.6875" height="12.2595" fill="white"/>
<rect x="146.312" y="97.8702" width="11.6875" height="12.2595" fill="white"/>
<rect x="146.312" y="114.588" width="11.6875" height="12.2595" fill="white"/>
<rect x="146.312" y="131.305" width="11.6875" height="12.2595" fill="white"/>
<rect x="146.312" y="148.023" width="11.6875" height="12.2595" fill="white"/>
<rect x="146.312" y="164.74" width="11.6875" height="12.2595" fill="white"/>
<rect x="39" y="47.7176" width="11.6875" height="12.2595" fill="white"/>
<rect x="39" y="31" width="11.6875" height="12.2595" fill="white"/>
<rect x="39" y="64.4351" width="11.6875" height="12.2595" fill="white"/>
<rect x="39" y="81.1527" width="11.6875" height="12.2595" fill="white"/>
<rect x="39" y="97.8702" width="11.6875" height="12.2595" fill="white"/>
<rect x="39" y="114.588" width="11.6875" height="12.2595" fill="white"/>
<rect x="39" y="131.305" width="11.6875" height="12.2595" fill="white"/>
<rect x="39" y="148.023" width="11.6875" height="12.2595" fill="white"/>
<rect x="39" y="164.74" width="11.6875" height="12.2595" fill="white"/>
<rect x="56" y="126.847" width="85" height="4.45802" fill="#0F0F0F"/>
<rect x="56" y="76.6946" width="85" height="4.45802" fill="#0F0F0F"/>
</svg>
