<svg width="528" height="208" viewBox="0 0 528 208" fill="none" xmlns="http://www.w3.org/2000/svg">
<rect width="528" height="208" fill="#FF8A8C"/>
<rect x="28" y="24" width="472" height="161" fill="#27211E"/>
<path d="M228.216 86.672H229.88C230.904 86.672 231.416 87.2267 231.416 88.336C231.416 89.4453 230.904 90 229.88 90H223.032C222.563 90 222.179 89.8507 221.88 89.552C221.624 89.2107 221.496 88.8053 221.496 88.336C221.496 87.2267 222.008 86.672 223.032 86.672H224.568V52.816L211.064 62.608C210.637 62.9493 210.211 63.12 209.784 63.12C209.357 63.12 208.888 62.9707 208.376 62.672L195.448 54.736V86.672H196.92C197.944 86.672 198.456 87.2267 198.456 88.336C198.456 89.4453 197.944 90 196.92 90H190.456C189.432 90 188.92 89.4453 188.92 88.336C188.92 87.2267 189.432 86.672 190.456 86.672H192.056V52.56H190.136C189.112 52.56 188.6 52.0053 188.6 50.896C188.6 50.384 188.728 49.9787 188.984 49.68C189.283 49.3387 189.667 49.168 190.136 49.168H192.12C192.888 49.168 193.677 49.4027 194.488 49.872L210.168 59.472L223.288 49.872C223.971 49.4027 224.547 49.168 225.016 49.168H229.816C230.883 49.168 231.416 49.744 231.416 50.896C231.416 52.0053 230.883 52.56 229.816 52.56H228.216V86.672ZM252.904 86.608H254.44C255.464 86.608 255.976 87.184 255.976 88.336C255.976 89.4453 255.464 90 254.44 90H247.656C246.632 90 246.12 89.4453 246.12 88.336C246.12 87.184 246.632 86.608 247.656 86.608H249.192V75.152L236.968 52.56H234.984C234.088 52.56 233.64 51.984 233.64 50.832C233.64 50.4053 233.768 50.0213 234.024 49.68C234.28 49.3387 234.6 49.168 234.984 49.168H242.92C243.304 49.168 243.624 49.3387 243.88 49.68C244.136 50.0213 244.264 50.4053 244.264 50.832C244.264 51.984 243.816 52.56 242.92 52.56H241.128L251.304 71.44L261.288 52.56H259.752C258.771 52.56 258.28 51.984 258.28 50.832C258.28 50.4053 258.408 50.0213 258.664 49.68C258.92 49.3387 259.283 49.168 259.752 49.168H266.536C266.963 49.168 267.304 49.3387 267.56 49.68C267.859 50.0213 268.008 50.4267 268.008 50.896C268.008 51.3653 267.859 51.7707 267.56 52.112C267.304 52.4107 266.963 52.56 266.536 52.56H264.872L252.904 75.088V86.608ZM325.841 86.672H327.505C328.529 86.672 329.041 87.2267 329.041 88.336C329.041 89.4453 328.529 90 327.505 90H320.657C320.188 90 319.804 89.8507 319.505 89.552C319.249 89.2107 319.121 88.8053 319.121 88.336C319.121 87.2267 319.633 86.672 320.657 86.672H322.193V52.816L308.689 62.608C308.262 62.9493 307.836 63.12 307.409 63.12C306.982 63.12 306.513 62.9707 306.001 62.672L293.073 54.736V86.672H294.545C295.569 86.672 296.081 87.2267 296.081 88.336C296.081 89.4453 295.569 90 294.545 90H288.081C287.057 90 286.545 89.4453 286.545 88.336C286.545 87.2267 287.057 86.672 288.081 86.672H289.681V52.56H287.761C286.737 52.56 286.225 52.0053 286.225 50.896C286.225 50.384 286.353 49.9787 286.609 49.68C286.908 49.3387 287.292 49.168 287.761 49.168H289.745C290.513 49.168 291.302 49.4027 292.113 49.872L307.793 59.472L320.913 49.872C321.596 49.4027 322.172 49.168 322.641 49.168H327.441C328.508 49.168 329.041 49.744 329.041 50.896C329.041 52.0053 328.508 52.56 327.441 52.56H325.841V86.672ZM364.865 69.584C364.865 76.1547 363.265 81.3173 360.065 85.072C356.865 88.784 352.897 90.64 348.161 90.64C343.468 90.64 339.521 88.7413 336.321 84.944C333.164 81.1467 331.585 75.9627 331.585 69.392C331.585 62.8213 333.185 57.7013 336.385 54.032C339.585 50.3627 343.532 48.528 348.225 48.528C352.961 48.528 356.908 50.384 360.065 54.096C363.265 57.808 364.865 62.9707 364.865 69.584ZM359.617 61.328C358.678 58.5973 357.206 56.2933 355.201 54.416C353.196 52.5387 350.849 51.6 348.161 51.6C345.516 51.6 343.19 52.4747 341.185 54.224C339.18 55.9733 337.686 58.1707 336.705 60.816C335.766 63.4187 335.297 66.192 335.297 69.136C335.297 73.6587 336.492 77.8613 338.881 81.744C341.27 85.6267 344.406 87.568 348.289 87.568C352.172 87.568 355.265 85.7547 357.569 82.128C359.916 78.5013 361.089 74.384 361.089 69.776C361.089 66.832 360.598 64.016 359.617 61.328ZM363.737 49.168H370.713C371.14 49.168 371.502 49.3387 371.801 49.68C372.1 50.0213 372.249 50.448 372.249 50.96C372.249 51.4293 372.1 51.8133 371.801 52.112C371.502 52.4107 371.14 52.56 370.713 52.56H369.241L380.825 85.712L390.553 57.744C391.236 55.696 391.577 54.5227 391.577 54.224C391.577 53.1573 391.257 52.5387 390.617 52.368C389.849 53.264 388.932 53.712 387.865 53.712C386.841 53.712 386.052 53.4773 385.497 53.008C384.942 52.496 384.665 51.9627 384.665 51.408C384.665 49.1467 386.116 48.016 389.017 48.016C390.553 48.016 391.876 48.592 392.985 49.744C394.094 50.8533 394.649 52.0907 394.649 53.456C394.649 54.7787 394.244 56.5067 393.433 58.64L382.553 89.232C382.169 90.256 381.465 90.768 380.441 90.768C379.417 90.768 378.734 90.2773 378.393 89.296L365.465 52.56H363.737C363.31 52.56 362.948 52.4107 362.649 52.112C362.393 51.8133 362.265 51.4293 362.265 50.96C362.265 50.448 362.393 50.0213 362.649 49.68C362.948 49.3387 363.31 49.168 363.737 49.168ZM400.305 86.672V52.56H398.449C397.425 52.56 396.913 52.0053 396.913 50.896C396.913 49.744 397.425 49.168 398.449 49.168H405.809C406.875 49.168 407.409 49.744 407.409 50.896C407.409 52.0053 406.875 52.56 405.809 52.56H403.953V86.672H405.809C406.833 86.672 407.345 87.2267 407.345 88.336C407.345 89.4453 406.833 90 405.809 90H398.449C397.425 90 396.913 89.4453 396.913 88.336C396.913 87.2267 397.425 86.672 398.449 86.672H400.305ZM417.32 86.672H431.528L438.12 80.272C438.419 79.9733 438.739 79.824 439.08 79.824C439.976 79.824 440.424 80.208 440.424 80.976C440.424 81.232 440.296 81.5733 440.04 82L435.432 89.168C435.091 89.7227 434.515 90 433.704 90H412.136C411.112 90 410.6 89.4453 410.6 88.336C410.6 87.2267 411.112 86.672 412.136 86.672H413.672V52.56H412.136C411.112 52.56 410.6 52.0053 410.6 50.896C410.6 49.744 411.112 49.168 412.136 49.168H427.304C428.115 49.168 428.733 49.3813 429.16 49.808L433.192 54.48C433.491 54.8213 433.64 55.1627 433.64 55.504C433.64 55.8453 433.512 56.144 433.256 56.4C433.043 56.6133 432.723 56.72 432.296 56.72C431.869 56.72 431.485 56.5493 431.144 56.208L426.6 52.24H417.32V59.472H424.04C423.784 59.088 423.656 58.6827 423.656 58.256C423.656 57.8293 423.805 57.4667 424.104 57.168C424.445 56.8267 424.893 56.656 425.448 56.656C426.003 56.656 426.429 56.8907 426.728 57.36L429.48 61.904C429.651 62.2027 429.736 62.5227 429.736 62.864C429.736 63.2053 429.608 63.5253 429.352 63.824C429.139 64.08 428.797 64.208 428.328 64.208C427.901 64.208 427.517 63.9733 427.176 63.504L426.344 62.544H417.32V86.672Z" fill="#FFF79A"/>
<path d="M240.32 121.88V155.352C240.32 155.864 241.365 156.12 243.456 156.12C245.589 156.12 247.787 155.8 250.048 155.16C252.352 154.477 254.464 153.496 256.384 152.216C258.347 150.893 259.904 149.101 261.056 146.84C262.208 144.536 262.784 141.677 262.784 138.264C262.784 134.851 261.824 131.757 259.904 128.984C256.277 123.736 250.688 121.112 243.136 121.112C241.259 121.112 240.32 121.368 240.32 121.88ZM236.672 121.56H235.2C234.133 121.56 233.6 121.005 233.6 119.896C233.6 118.744 234.112 118.168 235.136 118.168H242.752C249.621 118.211 255.253 120.045 259.648 123.672C264.085 127.256 266.304 132.312 266.304 138.84C266.304 145.368 264.107 150.36 259.712 153.816C255.36 157.272 249.6 159 242.432 159H235.136C234.112 159 233.6 158.445 233.6 157.336C233.6 156.227 234.112 155.672 235.136 155.672H236.672V121.56ZM295.533 155.672C296.514 155.672 297.005 156.227 297.005 157.336C297.005 158.445 296.514 159 295.533 159H288.493C287.469 159 286.957 158.445 286.957 157.336C286.957 156.227 287.469 155.672 288.493 155.672H289.965L288.109 149.848H271.021L269.229 155.672H270.765C271.789 155.672 272.301 156.227 272.301 157.336C272.301 158.445 271.789 159 270.765 159H264.301C263.277 159 262.765 158.445 262.765 157.336C262.765 156.227 263.277 155.672 264.301 155.672H265.901L276.525 121.56H273.965C272.984 121.56 272.493 121.005 272.493 119.896C272.493 118.744 272.984 118.168 273.965 118.168H280.557C281.496 118.168 282.072 118.467 282.285 119.064L293.933 155.672H295.533ZM271.853 146.776H287.341L279.533 121.816L271.853 146.776ZM296.278 115.416C296.79 115.416 297.216 115.587 297.558 115.928C297.899 116.227 298.07 116.547 298.07 116.888C298.07 117.229 297.92 117.656 297.622 118.168H318.166L318.358 117.592C318.742 116.397 319.382 115.8 320.278 115.8C320.747 115.8 321.152 115.971 321.494 116.312C321.878 116.611 322.07 116.973 322.07 117.4C322.07 117.827 321.963 118.253 321.75 118.68L319.382 123.096C318.998 123.821 318.592 124.184 318.166 124.184C317.27 124.184 316.822 123.779 316.822 122.968C316.822 122.712 316.864 122.499 316.95 122.328L317.27 121.24H308.566V155.672H310.23C311.254 155.672 311.766 156.227 311.766 157.336C311.766 158.445 311.254 159 310.23 159H303.318C302.294 159 301.782 158.445 301.782 157.336C301.782 156.227 302.294 155.672 303.318 155.672H304.918V121.24H296.278L295.254 122.904C294.912 123.416 294.528 123.672 294.102 123.672C293.675 123.672 293.334 123.565 293.078 123.352C292.864 123.096 292.758 122.819 292.758 122.52C292.758 122.179 292.822 121.859 292.95 121.56L294.486 117.016C294.827 115.949 295.424 115.416 296.278 115.416ZM349.721 155.672C350.702 155.672 351.193 156.227 351.193 157.336C351.193 158.445 350.702 159 349.721 159H342.681C341.657 159 341.145 158.445 341.145 157.336C341.145 156.227 341.657 155.672 342.681 155.672H344.153L342.297 149.848H325.209L323.417 155.672H324.953C325.977 155.672 326.489 156.227 326.489 157.336C326.489 158.445 325.977 159 324.953 159H318.489C317.465 159 316.953 158.445 316.953 157.336C316.953 156.227 317.465 155.672 318.489 155.672H320.089L330.713 121.56H328.153C327.171 121.56 326.681 121.005 326.681 119.896C326.681 118.744 327.171 118.168 328.153 118.168H334.745C335.683 118.168 336.259 118.467 336.473 119.064L348.121 155.672H349.721ZM326.041 146.776H341.529L333.721 121.816L326.041 146.776ZM356.485 121.56H354.949C353.925 121.56 353.413 121.005 353.413 119.896C353.413 118.744 353.925 118.168 354.949 118.168H362.437C370.842 118.168 375.045 120.493 375.045 125.144C375.045 126.595 374.703 127.853 374.021 128.92C373.338 129.987 372.399 130.669 371.205 130.968C373.423 131.48 375.279 133.016 376.773 135.576C378.309 138.136 379.077 140.995 379.077 144.152C379.077 148.419 377.818 151.96 375.301 154.776C372.826 157.592 368.858 159 363.397 159H354.949C354.522 159 354.159 158.851 353.861 158.552C353.562 158.211 353.413 157.805 353.413 157.336C353.413 156.227 353.925 155.672 354.949 155.672H356.485V121.56ZM360.133 129.496H364.805C367.023 129.496 368.73 129.219 369.925 128.664C371.162 128.067 371.781 127 371.781 125.464C371.781 122.477 369.029 120.984 363.525 120.984C361.263 120.984 360.133 121.155 360.133 121.496V129.496ZM360.133 132.632V155.608C360.133 155.949 361.157 156.12 363.205 156.12C367.343 156.12 370.415 155.117 372.421 153.112C374.426 151.107 375.429 148.12 375.429 144.152C375.429 140.184 374.405 137.283 372.357 135.448C370.351 133.571 367.77 132.632 364.613 132.632H360.133ZM411.346 155.672C412.327 155.672 412.818 156.227 412.818 157.336C412.818 158.445 412.327 159 411.346 159H404.306C403.282 159 402.77 158.445 402.77 157.336C402.77 156.227 403.282 155.672 404.306 155.672H405.778L403.922 149.848H386.834L385.042 155.672H386.578C387.602 155.672 388.114 156.227 388.114 157.336C388.114 158.445 387.602 159 386.578 159H380.114C379.09 159 378.578 158.445 378.578 157.336C378.578 156.227 379.09 155.672 380.114 155.672H381.714L392.338 121.56H389.778C388.796 121.56 388.306 121.005 388.306 119.896C388.306 118.744 388.796 118.168 389.778 118.168H396.37C397.308 118.168 397.884 118.467 398.098 119.064L409.746 155.672H411.346ZM387.666 146.776H403.154L395.346 121.816L387.666 146.776ZM414.078 149.848C414.078 148.397 414.462 147.224 415.23 146.328C415.998 145.389 416.766 144.92 417.534 144.92C418.344 144.92 418.963 145.197 419.39 145.752C419.859 146.307 420.094 146.968 420.094 147.736C420.094 149.315 419.518 150.573 418.366 151.512C418.835 153.347 419.795 154.712 421.246 155.608C422.739 156.461 424.382 156.888 426.174 156.888C428.819 156.888 430.91 155.992 432.446 154.2C434.024 152.408 434.814 150.403 434.814 148.184C434.814 145.923 433.96 143.981 432.253 142.36C430.973 141.208 429.331 139.971 427.326 138.648L424.062 136.536C421.715 135.043 419.923 133.507 418.686 131.928C417.448 130.307 416.83 128.323 416.83 125.976C416.83 123.587 417.726 121.581 419.518 119.96C421.31 118.296 423.422 117.464 425.854 117.464C428.328 117.464 430.398 118.019 432.062 119.128C433.726 120.237 434.558 121.581 434.558 123.16C434.558 123.928 434.323 124.547 433.854 125.016C433.427 125.443 432.787 125.656 431.934 125.656C431.08 125.656 430.248 125.293 429.438 124.568C428.67 123.843 428.286 123.181 428.286 122.584C428.286 121.987 428.35 121.496 428.478 121.112C428.094 120.387 427.198 120.024 425.79 120.024C424.382 120.024 423.123 120.579 422.014 121.688C420.947 122.797 420.414 124.035 420.414 125.4C420.414 127.619 422.419 130.051 426.43 132.696L429.694 134.872C431.102 135.853 432.147 136.621 432.83 137.176C433.555 137.688 434.451 138.499 435.518 139.608C437.566 141.741 438.59 144.557 438.59 148.056C438.59 151.555 437.374 154.371 434.942 156.504C432.51 158.637 429.63 159.704 426.302 159.704C422.974 159.704 420.094 158.701 417.661 156.696C415.272 154.648 414.078 152.365 414.078 149.848ZM447.57 155.672H461.778L468.37 149.272C468.669 148.973 468.989 148.824 469.33 148.824C470.226 148.824 470.674 149.208 470.674 149.976C470.674 150.232 470.546 150.573 470.29 151L465.682 158.168C465.341 158.723 464.765 159 463.954 159H442.386C441.362 159 440.85 158.445 440.85 157.336C440.85 156.227 441.362 155.672 442.386 155.672H443.922V121.56H442.386C441.362 121.56 440.85 121.005 440.85 119.896C440.85 118.744 441.362 118.168 442.386 118.168H457.554C458.365 118.168 458.983 118.381 459.41 118.808L463.442 123.48C463.741 123.821 463.89 124.163 463.89 124.504C463.89 124.845 463.762 125.144 463.506 125.4C463.293 125.613 462.973 125.72 462.546 125.72C462.119 125.72 461.735 125.549 461.394 125.208L456.85 121.24H447.57V128.472H454.29C454.034 128.088 453.906 127.683 453.906 127.256C453.906 126.829 454.055 126.467 454.354 126.168C454.695 125.827 455.143 125.656 455.698 125.656C456.253 125.656 456.679 125.891 456.978 126.36L459.73 130.904C459.901 131.203 459.986 131.523 459.986 131.864C459.986 132.205 459.858 132.525 459.602 132.824C459.389 133.08 459.047 133.208 458.578 133.208C458.151 133.208 457.767 132.973 457.426 132.504L456.594 131.544H447.57V155.672Z" fill="#FFF79A"/>
<rect x="69" y="39" width="80" height="131" fill="white"/>
<rect x="154" y="54" width="11" height="11" fill="white"/>
<rect x="154" y="39" width="11" height="11" fill="white"/>
<rect x="154" y="69" width="11" height="11" fill="white"/>
<rect x="154" y="84" width="11" height="11" fill="white"/>
<rect x="154" y="99" width="11" height="11" fill="white"/>
<rect x="154" y="114" width="11" height="11" fill="white"/>
<rect x="154" y="129" width="11" height="11" fill="white"/>
<rect x="154" y="144" width="11" height="11" fill="white"/>
<rect x="154" y="159" width="11" height="11" fill="white"/>
<rect x="53" y="54" width="11" height="11" fill="white"/>
<rect x="53" y="39" width="11" height="11" fill="white"/>
<rect x="53" y="69" width="11" height="11" fill="white"/>
<rect x="53" y="84" width="11" height="11" fill="white"/>
<rect x="53" y="99" width="11" height="11" fill="white"/>
<rect x="53" y="114" width="11" height="11" fill="white"/>
<rect x="53" y="129" width="11" height="11" fill="white"/>
<rect x="53" y="144" width="11" height="11" fill="white"/>
<rect x="53" y="159" width="11" height="11" fill="white"/>
<rect x="69" y="125" width="80" height="4" fill="#27211E"/>
<rect x="69" y="80" width="80" height="4" fill="#27211E"/>
</svg>
